<svg width="217" height="141" viewBox="0 0 217 141" xmlns="http://www.w3.org/2000/svg" xmlns:xlink="http://www.w3.org/1999/xlink">
    <defs>
        <path id="a" d="M.02.001h211.942v139.916H.021z"/>
        <path id="c" d="M0 .11h216.983V1H0z"/>
    </defs>
    <g fill="none" fill-rule="evenodd">
        <g transform="translate(3)">
            <mask id="b" fill="#fff">
                <use xlink:href="#a"/>
            </mask>
            <path d="M15.216 139.917s-26.4-25.816-9.605-56.19c16.795-30.373 39.353-15.098 38.261-50.45C42.781-2.076 95.75-5.113 112.61 5.137c16.86 10.252 16.759 22.597 51.565 18.512 34.807-4.084 41.456 29.967 32.4 47.32-12.847 24.623 35.659 20.562 5.095 68.948H15.216z" fill="#F1F3F3" mask="url(#b)"/>
        </g>
        <path d="M134 80s5.69-24.312 24.884-26.985c0 0 3.734-.462 4.978 3.684 1.243 4.145-6.182 4.175-10.772 5.843C148.5 64.209 137.8 71.279 134 80" fill="#B6BFC3"/>
        <path d="M133.102 75s-2.074-19.698 12.485-26.689c0 0 2.849-1.317 4.966 1.467 2.116 2.784-3.789 4.736-6.991 7.178-3.202 2.442-9.803 10.52-10.46 18.044" fill="#B6BFC3"/>
        <g transform="translate(0 140)">
            <mask id="d" fill="#fff">
                <use xlink:href="#c"/>
            </mask>
            <path d="M216.733 1H.25C.113 1 0 .832 0 .627V.484C0 .279.113.111.25.111h216.483c.137 0 .25.168.25.373v.143c0 .205-.113.373-.25.373" fill="#2D3554" mask="url(#d)"/>
        </g>
        <path d="M31.511 121.87c-2.932-6.548 7.705-12.174 7.705-12.174s14.016 4.446 16.029 3.226c2.012-1.219-11.227-6.093-11.227-6.093 3.267-3.132 15.792-6.002 15.792-6.002s8.448 11.424 10.093 9.757c1.644-1.667-8.008-9.742-8.008-9.742 4.257-1.697 10.678-.304 10.678-.304 9.246 3.226 4.541 14.694 4.541 14.694s3.015 3.897 9.004 6.37c0 0 1.205.38 2.882 1.315l-.935.738a11.621 11.621 0 0 0-.843-.514l-.012-.006c-.18-.091-.438-.22-.754-.375h-.001l-.002-.001a22.853 22.853 0 0 1-1.627-.773c-2.268-1.044-5.342-2.311-6.55-2.132 0 0-.014-.225-.146-.578l.145.578c1.162 4.622-6.377 11.495-11.57 14.117-5.193 2.621-4.263-.144-3.506-4.037.756-3.893 6.217-7.334 7.059-9.29.84-1.957-1.975-1.027-4.762 1.542-2.787 2.568-1.88 6.652-6.31 10.888-4.432 4.236-15.36-1.724-15.36-1.724 4.143-1.607 8.612-8.089 7.92-9.39-.692-1.3-9.399 5.757-11.046 6.504-1.648.746-6.256-.047-9.189-6.595M164.701 130.227c4.318-4.993-3.512-12.652-3.512-12.652s-13.478.311-14.918-1.274c-1.44-1.585 11.47-2.471 11.47-2.471-2.03-3.584-12.25-9.309-12.25-9.309s-10.456 7.86-11.453 5.976c-.998-1.884 9.62-6.496 9.62-6.496-3.28-2.58-9.284-3.001-9.284-3.001-8.97.463-7.9 11.727-7.9 11.727s-3.684 2.647-9.596 3.283c0 0-1.158.024-2.878.416l.623.886a10.784 10.784 0 0 1 .876-.234l.013-.003a68.838 68.838 0 0 1 .762-.135h.002a21.1 21.1 0 0 0 1.633-.262c2.268-.335 5.302-.66 6.314-.193 0 0 .072-.194.281-.47l-.281.47c-2.25 3.757 2.529 11.717 6.385 15.347 3.855 3.63 3.777.965 4.15-2.644.375-3.609-3.497-8.026-3.713-9.958-.217-1.931 2.005-.395 3.764 2.572 1.76 2.968-.125 6.318 2.632 11.169 2.758 4.85 13.931 2.42 13.931 2.42-3.204-2.47-5.396-9.302-4.443-10.265.954-.963 6.709 7.457 7.955 8.533 1.246 1.077 5.5 1.561 9.817-3.432M58.502 31.63c4.407-7.451 17.21-1.123 17.21-1.123s5.248 16.697 7.822 17.785c2.574 1.088-1.721-15.158-1.721-15.158 5.307.954 16.703 11.052 16.703 11.052s-5.407 16.226-2.646 16.643c2.76.416 4.06-14.614 4.06-14.614 4.58 2.922 7.615 10.118 7.615 10.118 3.174 11.22-11.288 14.749-11.288 14.749s-1.753 5.664-.073 13.203c0 0 .455 1.433.687 3.715l-1.364-.385a13.87 13.87 0 0 0-.074-1.177l-.002-.017a82.712 82.712 0 0 0-.15-.995v-.002a27.153 27.153 0 0 1-.358-2.119c-.532-2.93-1.396-6.799-2.4-7.842 0 0 .21-.171.467-.548l-.467.548c-3.733 4.381-15.635 1.93-21.763-1.248-6.128-3.178-2.78-4.226 1.553-6.238 4.334-2.011 11.449.848 13.942.284 2.494-.565-.347-2.634-4.774-3.52-4.427-.887-7.808 2.869-14.996 1.566-7.187-1.303-8.835-16.078-8.835-16.078 4.414 2.875 13.829 2.633 14.629 1.047.8-1.586-12.082-5.039-13.943-6.107-1.86-1.068-4.24-6.087.166-13.539" fill="#E1E5E5"/>
        <path d="M114.09 39.426h-5.201L108.152 21h6.675l-.737 18.426zm-6.09 6.24c0-.482.083-.928.25-1.337.165-.41.4-.764.704-1.064.303-.3.668-.534 1.094-.702a3.902 3.902 0 0 1 1.441-.252 3.99 3.99 0 0 1 1.452.252 3.2 3.2 0 0 1 1.105.702c.304.3.539.654.705 1.064.166.409.249.855.249 1.337 0 .483-.083.925-.25 1.327-.165.403-.4.753-.704 1.053a3.19 3.19 0 0 1-1.105.702 3.994 3.994 0 0 1-1.452.252 3.906 3.906 0 0 1-1.441-.252 3.207 3.207 0 0 1-1.094-.702c-.304-.3-.539-.65-.705-1.053a3.437 3.437 0 0 1-.249-1.327z" fill="#D9EA00"/>
        <path d="M95.35 22.477h-3.715L91.108 8h4.768l-.526 14.477zM91 27.381c0-.38.06-.73.178-1.051.119-.322.286-.6.503-.836.217-.235.477-.42.782-.552a2.564 2.564 0 0 1 1.03-.198c.38 0 .727.067 1.036.198.31.133.573.317.79.552.217.235.384.514.503.836.118.321.178.672.178 1.05 0 .38-.06.727-.178 1.043a2.509 2.509 0 0 1-.503.827c-.217.236-.48.42-.79.552-.31.132-.655.198-1.037.198-.382 0-.725-.066-1.03-.198a2.28 2.28 0 0 1-.78-.552 2.504 2.504 0 0 1-.504-.827A2.938 2.938 0 0 1 91 27.381zM175.35 46.477h-3.715L171.108 32h4.768l-.526 14.477zM171 51.381c0-.38.06-.73.178-1.051.119-.322.286-.6.503-.836.217-.235.477-.42.782-.552a2.564 2.564 0 0 1 1.03-.198c.38 0 .727.067 1.036.198.31.133.573.317.79.552.217.235.384.514.503.836.118.321.178.672.178 1.05 0 .38-.06.727-.178 1.043a2.509 2.509 0 0 1-.503.827c-.217.236-.48.42-.79.552-.31.132-.655.198-1.037.198-.382 0-.725-.066-1.03-.198a2.279 2.279 0 0 1-.78-.552 2.503 2.503 0 0 1-.504-.827 2.94 2.94 0 0 1-.178-1.042z" fill="#B6BFC3"/>
        <path d="M162.028 87.48c-.812 1.617-1.824 3.25-2.861 4.58-1.087 1.393-2.198 2.45-3.137 2.809l-.007.002c-.049.019-.097.036-.145.05l-.008.001v.001a1.6 1.6 0 0 1-.545.075C152.245 94.85 149 87.76 149 87.76s.084-.84.683-1.434c.523-.518.925-.653.925-.653s3.316 3.656 4.126 3.919c.51.165 1.18-2.388 2.14-5.594.96-3.206 4.333-3.997 4.333-3.997s3.413 2.319.82 7.48" fill="#A4AAAD"/>
        <path d="M158.655 92.33v.002c-.875 1.297-1.77 2.283-2.526 2.617l-.005.003-.118.046L156 95c.028-.023.836-.544.963-1.512.13-.988-.712-1.797 1.403-3.325 1.232-.891.289 2.168.289 2.168" fill="#7F929A"/>
        <path d="M156 140h7.786c.558-.354-.15-3.815-.15-3.815s-2.126-.754-2.493.78c-.368 1.533-2.706 2.02-3.944 2.208-.847.129-1.114.564-1.199.827" fill="#1D4070"/>
        <path d="M168 102.585s-.251 4.397-.565 9.493c-.226 3.653-.483 7.666-.704 10.672l-.086 1.14-.026.334c-.57 6.738-2.477 12.642-2.477 12.642-2.238.447-3.25-.37-3.25-.37s-1.542-17.114-2.113-24.017C158.359 107.398 158 100 158 100l10 2.585z" fill="#FAFE01"/>
        <path d="M168 112.332c-.22 3.653-.469 7.664-.683 10.668-1.419-3.267-4.317-16-4.317-16l5 5.332z" fill="#D9EA00"/>
        <path d="M168 140h7.786c.558-.354-.15-3.815-.15-3.815s-2.126-.754-2.493.78c-.368 1.533-2.706 2.02-3.944 2.208-.847.129-1.114.564-1.199.827" fill="#1D4070"/>
        <path d="M160 101.693s5.791 13.937 7.643 19.22c1.319 3.763 5.038 16.964 5.038 16.964s1.617.476 2.977-.444c0 0 1.383-13.487-1.412-17.29-1.483-2.018-.368-20.974-6.38-21.136-6.013-.163-7.866 2.686-7.866 2.686" fill="#FAFE01"/>
        <path d="M170.952 97.99c-.023 1.964-.044 3.405-.039 3.77.016 1.188-.726 1.456-1.49 1.637 0 0-.707.156-1.598.31-.873.15-1.925.298-2.669.293-3.802-.031-6.984-1.178-6.984-1.178-.716 0-1.042-1.133-1.16-2.716-.079-1.071.244-11.753.284-14.42.028-1.914 1.054-3.682 1.34-3.94 2.655-2.405 10.49-2.102 11.9-.443.35.41.45 4.365.463 8.697.007 2.789-.02 5.734-.047 7.99" fill="#A4AAAD"/>
        <path d="M166.926 80.31c-.921.995-4.016.848-3.924-.02.013-.107.033-.742.043-.84l.022-.23a43.434 43.434 0 0 0 .106-1.3h.003c.089-.025 2.079-.587 3.068-.82.333-.078.553-.12.549-.09-.304 2.212.435 2.975.133 3.3" fill="#FFAF73"/>
        <path d="M166 76.84s-.772 1.082-3 1.16c.038-.612.05-.944.05-.944h.003c.083-.032 1.93-.756 2.85-1.056.161.092-.053.687.097.84" fill="#FA9350"/>
        <path d="M161.495 76.59s.734.238 1.67.35c1.37.167 3.17.069 3.735-1.42.953-2.506 2.17-4.009-.634-5.032-1.5-.548-2.46-.577-3.112-.368-.567.18-.9.541-1.154.898-.544.767-1.639 5.134-.505 5.573" fill="#FFAF73"/>
        <path d="M162.549 69.794c-.924.601-.623 2.008.466 2.198.652.113 1.2.136 1.516.275.643.283 1.196.583 1.044 1.57-.052.337-.217.746.656.543.143-.033.246-.023.317.019.363.212-.1 1.244-.24 1.467 0 0-.2.739.245 1.098.054.043.93.423 3.041-2.776.332-.502.649-1.633.136-2.722-.512-1.089-1.94-2.466-4.629-2.466-.7 0-1.752.274-2.552.794" fill="#1E3865"/>
        <path d="M171.945 97.332c-.44 1.868-.329 1.887-1.005 1.398-2.756-1.997-1.95-3.043-1.338-4.773.612-1.73-1.537-4.436 0-5.59 1.503-1.127 2.36.691 2.397.772.008 2.86-.024 5.88-.054 8.193" fill="#7F929A"/>
        <path d="M171.027 96s-.83 1.64-1.374 1.582c-.545-.058-1.28-.303-1.703.186-.425.489-1.108 1.75-.917 2.086.191.335.959.038 1.51-.33.553-.368 1.422.181 1.885-.237.463-.417 1.572-2.076 1.572-2.076L171.027 96z" fill="#FFAF73"/>
        <path d="M170.772 81s8.197 7.202 7.133 11.993c-.485 2.183-1.99 4.025-6.001 7.007 0 0-1.898-1.224-2.314-2.218 0 0 3.64-4.789 3.5-5.604-.172-.998-2.658-3.5-3.55-3.89-.891-.388-.809-6.452 1.232-7.288" fill="#A4AAAD"/>
        <path d="M170 97.797s-.643-.51-.85-.728c-.206-.218-.16.135-.097.312s.236.573.488.614c.252.042.459-.198.459-.198" fill="#FFAF73"/>
        <path d="M37.784 83.087c-.284-.553 6.199-2.545 6.302 2.913 0 0 12.144-.301 6.345-7.132-2.007-2.365-1.8-4.32-1.74-6.14.06-1.82-1.25-7.11-5.746-6.578 0 0-1.177-.483-2.646.286-3.341 1.749-10.826 18.663-2.515 16.65" fill="#0B3563"/>
        <path d="M57 88.383s.831-1.164 1.501-1.187c.67-.023 1.91-.343 1.811-.114-.099.228-.868.251-.943.388-.074.137 1.142.343 1.49.365.347.023 1.165 0 1.14.16-.024.16-1.475.822-2.499.731-1.024-.091-2.29.274-2.29.274l-.21-.617z" fill="#FFAF73"/>
        <path d="M47 88.42s.433.834 1.218 1.792c.946 1.153 2.405 2.485 4.237 2.748.875.126 1.73-.057 2.517-.397l.003-.001c2.225-.961 3.898-3.171 3.898-3.171.392-1.04-.25-1.747-.25-1.747s-4.492.984-4.92.776c-.428-.209-3.058-5.887-3.532-6.833C49.164 79.577 47.565 79 47.565 79L47 88.42z" fill="#7F929A"/>
        <path d="M47.144 89.27c.96 1.129 2.441 2.434 4.3 2.691.889.123 1.758-.056 2.556-.39-.088.011-2.344.273-3.243-1.237-.917-1.54-1.909-3.987-3.271-3.172-.588.352-.562 1.227-.342 2.107" fill="#5F6D73"/>
        <path d="M30.932 133.594s-1.123 1.255-.904 2.147c.22.891 1.233 1.485 1.37 2.575S32.082 140 32.575 140h2.35s.363-.767-.513-.998c-.876-.231-1.207-1.511-1.152-2.7.055-1.189-.082-2.774-.082-2.774L31.315 133l-.383.594zM42.166 135s-.431 4.735.096 5l6.738-.014s0-.794-1.082-.97c-1.083-.177-2.984-.824-3.306-2.266-.322-1.441-2.446-1.75-2.446-1.75" fill="#173359"/>
        <path d="M37.047 84.609s-.106 1.586 0 3.49c.071 1.261 1.283 2.951 1.455 3.37.432 1.048.918 1.218.918 1.218l3.764.972 1.324.341 4.174-1.313s1.9-5.588 1.137-8.733c-.763-3.146-1.93-5.33-1.93-5.33s-2.829-1.177-7.84-.298l-3.002 6.283z" fill="#7F929A"/>
        <path d="M37 88.211c.075 1.198.19 2.313.37 2.71.453.995.964 1.157.964 1.157l3.95.922L44 92.52s-5.727-.827-5.093-5.52L37 88.211z" fill="#F9CBA5"/>
        <path d="M47.828 94s2.038 6.511 2.169 8.728c.13 2.217-3.896 31.494-4.058 32.515-.153.963-1.317 1.577-1.317 1.577s-.536.324-1.3.103c-1.061-.308-1.397-.676-1.397-.676s-1.586-20.88-.604-28.338c.981-7.459.993-13.909.993-13.909h5.514z" fill="#2C363A"/>
        <path d="M38.683 94s-3.247 4.37-3.55 7.323c-.302 2.953-.474 13.327-1.119 16.207-.645 2.879-3.014 8.42-3.014 17.4 0 0 .246.515 1.007.79.243.087.569.172.885.245a1.39 1.39 0 0 0 1.557-.741c1.601-3.235 6.704-13.667 6.965-15.833.185-1.532 1.796-11.675 5.31-17.626.844-1.43-.517-7.111-.517-7.111L38.683 94z" fill="#4B555B"/>
        <path d="M47.878 92s-.86.907-2.567.953c-2.04.055-7.095-.694-7.095-.694s-.225.837-.216 1.721c0 0 6.174 2.077 9.751.303 0 0 .462-1.157.127-2.283" fill="#1E3865"/>
        <path d="M45.331 93.5c0 .585.3 1.06.669 1.06.369 0 .669-.475.669-1.06 0-.585-.3-1.06-.669-1.06-.369 0-.669.475-.669 1.06m-.331 0c0-.827.449-1.5 1-1.5.551 0 1 .673 1 1.5s-.449 1.5-1 1.5c-.551 0-1-.673-1-1.5" fill="#FFF"/>
        <path d="m32.295 94.574 4.956 4.22a.874.874 0 0 0 1.214-.083l6.324-7.1a.827.827 0 0 0-.084-1.185l-4.956-4.22a.874.874 0 0 0-1.214.083l-6.324 7.1a.828.828 0 0 0 .084 1.185" fill="#D9EA00"/>
        <path d="M39.425 93c.069.025 2.575.427 2.575 1.135 0 .819-.734 1.915-1.427 1.863-.28-.02-1.573-1.646-1.573-1.646L39.425 93zM42.057 78.295c.218-.748.344-1.886.34-3.295l.145.04 2.428.682s-.055 1.083-.057 2.103v.025c-.003.886.422 1.775-.58 2.127-.31.108-2.733-.112-2.276-1.682" fill="#FFAF73"/>
        <path d="M45 74.734s-.068 1.167-.07 2.266c-1.68-.058-2.566-1.95-2.93-3l3 .734z" fill="#F5904E"/>
        <path d="M45.762 77s-3.718.068-3.72-2.516c-.003-2.584-.484-4.315 1.89-4.468 2.373-.153 2.835.832 3.024 1.695.188.862-.227 5.204-1.194 5.289" fill="#FFAF73"/>
        <path d="M46 69.5s-1.056 2.888-2.677 3.315c-1.62.427-2.323-.018-2.323-.018s1.243-1.012 1.501-2.778c0 0 2.702-1.893 3.499-.519" fill="#0B3563"/>
        <path d="M45 69.521s1.203.332 1.698.979c.484.633.897 1.471.801 2.5 0 0 1.222-2.171-.151-3.4C45.89 68.298 45 69.521 45 69.521" fill="#0B3563"/>
        <path d="M39 93.43s.706-.565 1.179-.4c.472.165.821-.023.821.306s-.61.483-.74.64c-.129.159-1.26-.545-1.26-.545" fill="#FFAF73"/>
        <path d="M38.615 79s-3.054.212-4.224 3.023C33.22 84.835 31 89.556 31 90.35c0 .794 1.24 3.242 7.902 4.65 0 0 .69-.716.647-1.283 0 0-4.158-3.53-4.147-3.942.021-.78.682-1.81 4.333-5.42.992-.981-1.12-5.355-1.12-5.355" fill="#7F929A"/>
        <path d="M123.868 53H91.132a2.95 2.95 0 0 0-2.11.895L65.874 77.587a3.092 3.092 0 0 0-.874 2.16v33.506c0 .81.314 1.587.874 2.16l23.148 23.692a2.95 2.95 0 0 0 2.11.895h32.736a2.95 2.95 0 0 0 2.11-.895l23.148-23.692c.56-.573.874-1.35.874-2.16V79.747c0-.81-.314-1.587-.874-2.16l-23.148-23.692a2.95 2.95 0 0 0-2.11-.895" fill="#D9EA00"/>
        <path d="M93.341 61.936c-.369 0-.716.144-.977.405L72.341 82.364a1.373 1.373 0 0 0-.405.978v28.317c0 .369.144.716.405.977l20.023 20.023c.261.261.608.405.977.405h28.317c.37 0 .717-.144.978-.405l20.023-20.023c.26-.261.405-.608.405-.977V83.342c0-.37-.144-.717-.405-.978l-20.023-20.023a1.373 1.373 0 0 0-.978-.405H93.341zM121.658 136H93.341a4.29 4.29 0 0 1-3.053-1.265l-20.023-20.023A4.29 4.29 0 0 1 69 111.66V83.342a4.29 4.29 0 0 1 1.265-3.054l20.023-20.023A4.29 4.29 0 0 1 93.34 59h28.317a4.29 4.29 0 0 1 3.054 1.265l20.023 20.023A4.29 4.29 0 0 1 146 83.342v28.317a4.29 4.29 0 0 1-1.265 3.053l-20.023 20.023a4.29 4.29 0 0 1-3.054 1.265z" fill="#161A1B"/>
        <path d="m130.772 98.837-.59-.511a3.575 3.575 0 0 0-5.03.362l-3.335 3.854c-.476.55-1.38.213-1.38-.515a8.51 8.51 0 0 0-.049-.905V76.86a2.905 2.905 0 0 0-2.894-2.898h-.214a2.905 2.905 0 0 0-2.895 2.898v15.79c0 .384-.31.694-.693.694a.766.766 0 0 1-.765-.766V73.8c0-1.54-1.26-2.8-2.798-2.8h-.408a2.807 2.807 0 0 0-2.797 2.8v18.902a.642.642 0 0 1-.642.642.817.817 0 0 1-.817-.817V77.459a2.904 2.904 0 0 0-2.895-2.898h-.214a2.904 2.904 0 0 0-2.894 2.898v15.19c0 .384-.311.695-.695.695a.764.764 0 0 1-.764-.764V80.695a2.904 2.904 0 0 0-2.894-2.897h-.214A2.904 2.904 0 0 0 92 80.695v20.867c0 .058.002.115.006.172a8.419 8.419 0 0 0-.006.293v11.485c0 4.669 3.816 8.488 8.48 8.488h11.477c2.983 0 5.619-1.563 7.131-3.91.457-.71.952-1.393 1.503-2.031l10.543-12.187a3.582 3.582 0 0 0-.362-5.035" fill="#161A1B"/>
    </g>
</svg>
